<svg id="Layer_1" data-name="Layer 1" xmlns="http://www.w3.org/2000/svg" viewBox="0 0 815.13 174.16"><defs><style>.cls-1{fill:#231f20;}.cls-2{fill:#cfd0d2;}.cls-3,.cls-4,.cls-5{fill:none;}.cls-3{stroke:#d0d2d3;stroke-miterlimit:10;stroke-width:0.5px;}.cls-5{stroke:#000;stroke-linecap:round;stroke-linejoin:round;stroke-width:0;}</style></defs><rect class="cls-1" x="28.29" y="43.69" width="11.25" height="48.21"/><polygon class="cls-2" points="24 38.14 8.36 38.14 8.36 4.07 24 0 24 38.14"/><polygon class="cls-1" points="33.91 44.57 24 44.57 24 0 33.91 6.76 33.91 44.57"/><rect class="cls-2" x="4.67" y="38.14" width="23.62" height="48.21"/><polygon class="cls-1" points="44.57 169.72 34.5 171.86 34.5 90.43 44.57 90.43 44.57 169.72"/><rect class="cls-2" y="86.36" width="34.5" height="85.5"/><path class="cls-1" d="M15.19,22.29h2.57a3.29,3.29,0,0,1,3.29,3.29V34.5a0,0,0,0,1,0,0H11.9a0,0,0,0,1,0,0V25.58A3.29,3.29,0,0,1,15.19,22.29Z"/><line class="cls-3" x1="16.48" y1="22.29" x2="16.48" y2="34.5"/><line class="cls-3" x1="21.06" y1="28.39" x2="11.9" y2="28.39"/><path class="cls-1" d="M10.46,41.56h1.63a3.29,3.29,0,0,1,3.29,3.29V51.3a0,0,0,0,1,0,0H7.17a0,0,0,0,1,0,0V44.85A3.29,3.29,0,0,1,10.46,41.56Z"/><line class="cls-3" x1="11.28" y1="41.56" x2="11.28" y2="51.3"/><line class="cls-3" x1="15.39" y1="46.43" x2="7.17" y2="46.43"/><path class="cls-1" d="M16.91,90h1.63a3.29,3.29,0,0,1,3.29,3.29v6.44a0,0,0,0,1,0,0H13.61a0,0,0,0,1,0,0V93.29A3.29,3.29,0,0,1,16.91,90Z"/><line class="cls-3" x1="17.73" y1="90" x2="17.73" y2="99.74"/><line class="cls-3" x1="21.84" y1="94.87" x2="13.61" y2="94.87"/><path class="cls-1" d="M16.91,103.38h1.63a3.29,3.29,0,0,1,3.29,3.29v6.44a0,0,0,0,1,0,0H13.61a0,0,0,0,1,0,0v-6.44A3.29,3.29,0,0,1,16.91,103.38Z"/><line class="cls-3" x1="17.73" y1="103.38" x2="17.73" y2="113.12"/><line class="cls-3" x1="21.84" y1="108.25" x2="13.61" y2="108.25"/><path class="cls-1" d="M16.91,116.76h1.63a3.29,3.29,0,0,1,3.29,3.29v6.44a0,0,0,0,1,0,0H13.61a0,0,0,0,1,0,0v-6.44A3.29,3.29,0,0,1,16.91,116.76Z"/><line class="cls-3" x1="17.73" y1="116.76" x2="17.73" y2="126.5"/><line class="cls-3" x1="21.84" y1="121.63" x2="13.61" y2="121.63"/><path class="cls-1" d="M16.91,130.14h1.63a3.29,3.29,0,0,1,3.29,3.29v6.44a0,0,0,0,1,0,0H13.61a0,0,0,0,1,0,0v-6.44A3.29,3.29,0,0,1,16.91,130.14Z"/><line class="cls-3" x1="17.73" y1="130.14" x2="17.73" y2="139.88"/><line class="cls-3" x1="21.84" y1="135.01" x2="13.61" y2="135.01"/><path class="cls-1" d="M16.91,143.52h1.63a3.29,3.29,0,0,1,3.29,3.29v6.44a0,0,0,0,1,0,0H13.61a0,0,0,0,1,0,0v-6.44A3.29,3.29,0,0,1,16.91,143.52Z"/><line class="cls-3" x1="17.73" y1="143.52" x2="17.73" y2="153.26"/><line class="cls-3" x1="21.84" y1="148.39" x2="13.61" y2="148.39"/><path class="cls-1" d="M16.91,156.9h1.63a3.29,3.29,0,0,1,3.29,3.29v6.44a0,0,0,0,1,0,0H13.61a0,0,0,0,1,0,0V160.2A3.29,3.29,0,0,1,16.91,156.9Z"/><line class="cls-3" x1="17.73" y1="156.9" x2="17.73" y2="166.64"/><line class="cls-3" x1="21.84" y1="161.77" x2="13.61" y2="161.77"/><path class="cls-1" d="M6.35,90H8a3.29,3.29,0,0,1,3.29,3.29v6.44a0,0,0,0,1,0,0H3.06a0,0,0,0,1,0,0V93.29A3.29,3.29,0,0,1,6.35,90Z"/><line class="cls-3" x1="7.17" y1="90" x2="7.17" y2="99.74"/><line class="cls-3" x1="11.28" y1="94.87" x2="3.06" y2="94.87"/><path class="cls-1" d="M6.35,116.76H8a3.29,3.29,0,0,1,3.29,3.29v6.44a0,0,0,0,1,0,0H3.06a0,0,0,0,1,0,0v-6.44A3.29,3.29,0,0,1,6.35,116.76Z"/><line class="cls-3" x1="7.17" y1="116.76" x2="7.17" y2="126.5"/><line class="cls-3" x1="11.28" y1="121.63" x2="3.06" y2="121.63"/><path class="cls-1" d="M6.35,130.14H8a3.29,3.29,0,0,1,3.29,3.29v6.44a0,0,0,0,1,0,0H3.06a0,0,0,0,1,0,0v-6.44A3.29,3.29,0,0,1,6.35,130.14Z"/><line class="cls-3" x1="7.17" y1="130.14" x2="7.17" y2="139.88"/><line class="cls-3" x1="11.28" y1="135.01" x2="3.06" y2="135.01"/><path class="cls-1" d="M6.35,143.52H8a3.29,3.29,0,0,1,3.29,3.29v6.44a0,0,0,0,1,0,0H3.06a0,0,0,0,1,0,0v-6.44A3.29,3.29,0,0,1,6.35,143.52Z"/><line class="cls-3" x1="7.17" y1="143.52" x2="7.17" y2="153.26"/><line class="cls-3" x1="11.28" y1="148.39" x2="3.06" y2="148.39"/><path class="cls-1" d="M6.35,156.9H8a3.29,3.29,0,0,1,3.29,3.29v6.44a0,0,0,0,1,0,0H3.06a0,0,0,0,1,0,0V160.2A3.29,3.29,0,0,1,6.35,156.9Z"/><line class="cls-3" x1="7.17" y1="156.9" x2="7.17" y2="166.64"/><line class="cls-3" x1="11.28" y1="161.77" x2="3.06" y2="161.77"/><path class="cls-1" d="M6.35,103.38H8a3.29,3.29,0,0,1,3.29,3.29v6.44a0,0,0,0,1,0,0H3.06a0,0,0,0,1,0,0v-6.44A3.29,3.29,0,0,1,6.35,103.38Z"/><line class="cls-3" x1="7.17" y1="103.38" x2="7.17" y2="113.12"/><line class="cls-3" x1="11.28" y1="108.25" x2="3.06" y2="108.25"/><path class="cls-1" d="M21,41.56h1.63a3.29,3.29,0,0,1,3.29,3.29V51.3a0,0,0,0,1,0,0H17.73a0,0,0,0,1,0,0V44.85A3.29,3.29,0,0,1,21,41.56Z"/><line class="cls-3" x1="21.84" y1="41.56" x2="21.84" y2="51.3"/><line class="cls-3" x1="25.95" y1="46.43" x2="17.73" y2="46.43"/><path class="cls-1" d="M21,56.26h1.63a3.29,3.29,0,0,1,3.29,3.29V66a0,0,0,0,1,0,0H17.73a0,0,0,0,1,0,0V59.55A3.29,3.29,0,0,1,21,56.26Z"/><line class="cls-3" x1="21.84" y1="56.26" x2="21.84" y2="66"/><line class="cls-3" x1="25.95" y1="61.13" x2="17.73" y2="61.13"/><path class="cls-1" d="M27.47,90H29.1a3.29,3.29,0,0,1,3.29,3.29v6.44a0,0,0,0,1,0,0H24.17a0,0,0,0,1,0,0V93.29A3.29,3.29,0,0,1,27.47,90Z"/><line class="cls-3" x1="28.29" y1="90" x2="28.29" y2="99.74"/><line class="cls-3" x1="32.4" y1="94.87" x2="24.17" y2="94.87"/><path class="cls-1" d="M28.14,103.38h1.63a3.29,3.29,0,0,1,3.29,3.29v6.44a0,0,0,0,1,0,0H24.84a0,0,0,0,1,0,0v-6.44A3.29,3.29,0,0,1,28.14,103.38Z"/><line class="cls-3" x1="28.96" y1="103.38" x2="28.96" y2="113.12"/><line class="cls-3" x1="33.07" y1="108.25" x2="24.84" y2="108.25"/><path class="cls-1" d="M28.14,130.14h1.63a3.29,3.29,0,0,1,3.29,3.29v6.44a0,0,0,0,1,0,0H24.84a0,0,0,0,1,0,0v-6.44A3.29,3.29,0,0,1,28.14,130.14Z"/><line class="cls-3" x1="28.96" y1="130.14" x2="28.96" y2="139.88"/><line class="cls-3" x1="33.07" y1="135.01" x2="24.84" y2="135.01"/><path class="cls-1" d="M27.35,143.52H29a3.29,3.29,0,0,1,3.29,3.29v6.44a0,0,0,0,1,0,0H24.06a0,0,0,0,1,0,0v-6.44A3.29,3.29,0,0,1,27.35,143.52Z"/><line class="cls-3" x1="28.17" y1="143.52" x2="28.17" y2="153.26"/><line class="cls-3" x1="32.28" y1="148.39" x2="24.06" y2="148.39"/><path class="cls-1" d="M27.35,156.9H29a3.29,3.29,0,0,1,3.29,3.29v6.44a0,0,0,0,1,0,0H24.06a0,0,0,0,1,0,0V160.2A3.29,3.29,0,0,1,27.35,156.9Z"/><line class="cls-3" x1="28.17" y1="156.9" x2="28.17" y2="166.64"/><line class="cls-3" x1="32.28" y1="161.77" x2="24.06" y2="161.77"/><path class="cls-1" d="M28.14,116.76h1.63a3.29,3.29,0,0,1,3.29,3.29v6.44a0,0,0,0,1,0,0H24.84a0,0,0,0,1,0,0v-6.44A3.29,3.29,0,0,1,28.14,116.76Z"/><line class="cls-3" x1="28.96" y1="116.76" x2="28.96" y2="126.5"/><line class="cls-3" x1="33.07" y1="121.63" x2="24.84" y2="121.63"/><path class="cls-1" d="M21,71h1.63a3.29,3.29,0,0,1,3.29,3.29V80.7a0,0,0,0,1,0,0H17.73a0,0,0,0,1,0,0V74.25A3.29,3.29,0,0,1,21,71Z"/><line class="cls-3" x1="21.84" y1="70.96" x2="21.84" y2="80.7"/><line class="cls-3" x1="25.95" y1="75.83" x2="17.73" y2="75.83"/><path class="cls-1" d="M10.46,71h1.63a3.29,3.29,0,0,1,3.29,3.29V80.7a0,0,0,0,1,0,0H7.17a0,0,0,0,1,0,0V74.25A3.29,3.29,0,0,1,10.46,71Z"/><line class="cls-3" x1="11.28" y1="70.96" x2="11.28" y2="80.7"/><line class="cls-3" x1="15.39" y1="75.83" x2="7.17" y2="75.83"/><path class="cls-1" d="M10.46,56.26h1.63a3.29,3.29,0,0,1,3.29,3.29V66a0,0,0,0,1,0,0H7.17a0,0,0,0,1,0,0V59.55A3.29,3.29,0,0,1,10.46,56.26Z"/><line class="cls-3" x1="11.28" y1="56.26" x2="11.28" y2="66"/><line class="cls-3" x1="15.39" y1="61.13" x2="7.17" y2="61.13"/><path class="cls-4" d="M276,300.71h12.16c13.18,0,21.54-2,27.87-7.35C326,286,330,275.87,330,262.19c0-27.12-18-37-37.5-37-7.35,0-18.41,1-20.18,2.54" transform="translate(-198.7 -212.2)"/><path d="M247.39,228.39c1.77-1.52,12.83-2.54,20.18-2.54,19.51,0,37.5,9.89,37.5,37,0,13.68-4.06,23.82-13.94,31.17-6.33,5.32-14.7,7.35-27.87,7.35H251.09V310H260c12.93,0,16.22,1.52,21.29,9.63,8.11,12.93,17.23,28.89,26.61,41.81,11.15,15.71,21,20.53,39.53,21.8,3.29.25,6.08.5,9.37.5l1-7.09c-5.83-1.52-11.66-4.31-18.5-11.66-5.83-6.33-10.64-12.67-20-26.1-7.6-11.4-18.5-28.38-23.06-36.24,18.75-8.1,32.69-21.79,32.69-43.58,0-15.46-6.84-26.86-17.23-33.45C302,219.26,289.61,217,271.11,217l-23.66.54" transform="translate(-198.7 -212.2)"/><path class="cls-5" d="M276,403.16" transform="translate(-198.7 -212.2)"/><path class="cls-5" d="M276,380.76" transform="translate(-198.7 -212.2)"/><path class="cls-5" d="M272.38,216.86" transform="translate(-198.7 -212.2)"/><path class="cls-5" d="M276,194" transform="translate(-198.7 -212.2)"/><path class="cls-5" d="M272.38,216.59" transform="translate(-198.7 -212.2)"/><path class="cls-5" d="M276,380.76" transform="translate(-198.7 -212.2)"/><path class="cls-5" d="M276,309.05" transform="translate(-198.7 -212.2)"/><path class="cls-5" d="M276,348.83" transform="translate(-198.7 -212.2)"/><path class="cls-5" d="M276,309.05" transform="translate(-198.7 -212.2)"/><path class="cls-5" d="M276,300.43" transform="translate(-198.7 -212.2)"/><path d="M434.58,367.74c-12.29,15.36-25.73,18.62-31.87,18.62-23.43,0-37.64-19.2-37.64-41.28,0-13.05,4.61-25.15,12.48-33.6,8.07-9,18.63-14,28.61-14,16.71,0,29.38,14.4,29.38,29.76-.19,3.84-.77,5.57-3.84,6.33-3.84.77-28.42,2.5-51.27,3.27-.57,25.73,15.17,36.29,28.8,36.29,7.88,0,15.17-3.27,22.28-9.8Zm-33-63c-8.83,0-17.47,8.26-20.16,23.81,10.76,0,21.51,0,32.84-.57,3.45,0,4.6-1,4.6-3.84C419,314,412.31,304.76,401.55,304.76Z" transform="translate(-198.7 -212.2)"/><path d="M497.17,322.62c-3.46-11.14-8.45-18.82-20.16-18.82-6.72,0-11.91,4.8-11.91,12.48,0,8.26,5.57,12.1,16.32,17.09,16.52,7.87,24.77,13.63,24.77,26.31,0,17.66-16.13,26.68-31.29,26.68-10,0-18.82-3.07-22.85-5.37-1-5.57-2.69-16.13-3.46-22.47l5.57-1c3.46,12.29,10.18,22.28,23.62,22.28,7.29,0,13.44-5,13.44-13.06,0-8.64-5.19-13.06-15.36-18-13.44-6.53-24.39-12.67-24.39-26.49,0-14,11.91-24.77,29.95-24.77,8.07,0,14.6,1.92,18.44,2.49.57,4.61,1.92,16.71,2.88,21.32Z" transform="translate(-198.7 -212.2)"/><path d="M518.48,384.06v-5.38c12.09-1.15,13.44-2.11,13.44-15.16V324c0-11.9-.58-12.67-12.1-14.59v-4.61a125.08,125.08,0,0,0,27.27-7.68v66.44c0,13.05,1.34,14,13.82,15.16v5.38Zm20-105.79a10.51,10.51,0,0,1-10.18-10.18,10.37,10.37,0,0,1,10.37-10.56c5.37,0,9.79,4.42,9.79,10.56A10.21,10.21,0,0,1,538.45,278.27Z" transform="translate(-198.7 -212.2)"/><path d="M663.44,379.26c-4,.77-18.43,3.07-29.76,7.1V373.88c-3.46,2.12-8.45,4.8-11.91,6.92-7.68,4.41-12.86,5.56-15.16,5.56-15.36,0-35.72-15.36-35.72-42.24,0-26.68,23.43-46.65,49.73-46.65,2.69,0,9,.38,13.06,2.11V271.36c0-12.29-1.35-12.68-15-13.83v-5c9.6-1.34,23-4,30.15-6.53V361.79c0,10,1.34,11.33,8.44,11.71l6.15.38Zm-29.76-64.51C629.26,308,621,305,613.52,305,604.3,305,588,311.1,588,338.75c0,23.23,14.4,35.52,26.69,35.71,6.91,0,14.4-3.46,19-6.91Z" transform="translate(-198.7 -212.2)"/><path d="M742.35,367.74c-12.29,15.36-25.73,18.62-31.87,18.62-23.43,0-37.64-19.2-37.64-41.28,0-13.05,4.61-25.15,12.48-33.6,8.07-9,18.63-14,28.61-14,16.71,0,29.38,14.4,29.38,29.76-.19,3.84-.77,5.57-3.84,6.33-3.84.77-28.42,2.5-51.27,3.27-.57,25.73,15.17,36.29,28.8,36.29,7.88,0,15.17-3.27,22.28-9.8Zm-33-63c-8.83,0-17.47,8.26-20.16,23.81,10.76,0,21.51,0,32.84-.57,3.45,0,4.6-1,4.6-3.84C726.79,314,720.08,304.76,709.32,304.76Z" transform="translate(-198.7 -212.2)"/><path d="M809.93,384.06v-5.38c11.14-1.15,12.29-2.49,12.29-15.55V331.45c0-13.44-4.8-22.46-17.47-22.46-7.88,0-15.36,4.61-21.32,10V363.9c0,13.25,1.16,13.63,12.48,14.78v5.38H754.44v-5.38c12.67-1.34,13.83-2.11,13.83-14.78V324.35c0-12.48-1.35-13.06-11.72-14.79v-5a108.54,108.54,0,0,0,26.88-7.68v15.17c3.84-2.69,8.07-5.57,13.06-8.83,5.38-3.46,10.37-5.76,15.94-5.76,15.36,0,25,11.33,25,29.95V363.9c0,13.06,1.15,13.63,12.28,14.78v5.38Z" transform="translate(-198.7 -212.2)"/><path d="M932.81,366.78c-8.45,11.14-21.31,19.58-32.83,19.58-24.39,0-38.79-19.77-38.79-40.32,0-15.16,6.53-27.84,19.39-37.63,10.18-7.87,21.7-10.94,29.19-10.94,8.64,0,15,2.69,17.85,5.18,2.69,2.11,3.08,3.46,3.08,5.57,0,4.61-4.8,8.64-6.91,8.64-1,0-1.73-.38-3.65-1.92-6-5.38-12.48-8.06-19.39-8.06-12.68,0-23.81,10.75-23.81,30.72-.19,26.68,18,35.52,29.18,35.52,8.06,0,14.59-2.12,23.42-10.56Z" transform="translate(-198.7 -212.2)"/><path d="M1012.87,367.74c-12.29,15.36-25.73,18.62-31.87,18.62-23.42,0-37.63-19.2-37.63-41.28,0-13.05,4.61-25.15,12.48-33.6,8.06-9,18.62-14,28.61-14,16.7,0,29.37,14.4,29.37,29.76-.19,3.84-.77,5.57-3.84,6.33-3.84.77-28.41,2.5-51.26,3.27-.58,25.73,15.17,36.29,28.8,36.29,7.87,0,15.17-3.27,22.27-9.8Zm-33-63c-8.83,0-17.47,8.26-20.16,23.81,10.75,0,21.5,0,32.83-.57,3.46,0,4.61-1,4.61-3.84C997.32,314,990.6,304.76,979.85,304.76Z" transform="translate(-198.7 -212.2)"/></svg>